<svg width="24" height="24" viewBox="0 0 24 24" fill="none" xmlns="http://www.w3.org/2000/svg">
<g clip-path="url(#clip0_202_147)">
<path d="M8 4H5C4.44772 4 4 4.44772 4 5V8C4 8.55228 4.44772 9 5 9H8C8.55228 9 9 8.55228 9 8V5C9 4.44772 8.55228 4 8 4Z" stroke="#A9A9A9" stroke-width="2" stroke-linecap="round" stroke-linejoin="round"/>
<path d="M21 4H18C17.4477 4 17 4.44772 17 5V8C17 8.55228 17.4477 9 18 9H21C21.5523 9 22 8.55228 22 8V5C22 4.44772 21.5523 4 21 4Z" stroke="#A9A9A9" stroke-width="2" stroke-linecap="round" stroke-linejoin="round"/>
<path d="M8 17H5C4.44772 17 4 17.4477 4 18V21C4 21.5523 4.44772 22 5 22H8C8.55228 22 9 21.5523 9 21V18C9 17.4477 8.55228 17 8 17Z" stroke="#A9A9A9" stroke-width="2" stroke-linecap="round" stroke-linejoin="round"/>
<path d="M22 17H19C18.4696 17 17.9609 17.2107 17.5858 17.5858C17.2107 17.9609 17 18.4696 17 19V22" stroke="#A9A9A9" stroke-width="2" stroke-linecap="round" stroke-linejoin="round"/>
<path d="M22 22V22.01" stroke="#A9A9A9" stroke-width="2" stroke-linecap="round" stroke-linejoin="round"/>
<path d="M13 8V11C13 11.5304 12.7893 12.0391 12.4142 12.4142C12.0391 12.7893 11.5304 13 11 13H8" stroke="#A9A9A9" stroke-width="2" stroke-linecap="round" stroke-linejoin="round"/>
<path d="M4 13H4.01" stroke="#A9A9A9" stroke-width="2" stroke-linecap="round" stroke-linejoin="round"/>
<path d="M13 4H13.01" stroke="#A9A9A9" stroke-width="2" stroke-linecap="round" stroke-linejoin="round"/>
<path d="M13 17V17.01" stroke="#A9A9A9" stroke-width="2" stroke-linecap="round" stroke-linejoin="round"/>
<path d="M17 13H18" stroke="#A9A9A9" stroke-width="2" stroke-linecap="round" stroke-linejoin="round"/>
<path d="M22 13V13.01" stroke="#A9A9A9" stroke-width="2" stroke-linecap="round" stroke-linejoin="round"/>
<path d="M13 22V21" stroke="#A9A9A9" stroke-width="2" stroke-linecap="round" stroke-linejoin="round"/>
<path d="M7 3H4C3.44772 3 3 3.44772 3 4V7C3 7.55228 3.44772 8 4 8H7C7.55228 8 8 7.55228 8 7V4C8 3.44772 7.55228 3 7 3Z" stroke="black" stroke-width="2" stroke-linecap="round" stroke-linejoin="round"/>
<path d="M20 3H17C16.4477 3 16 3.44772 16 4V7C16 7.55228 16.4477 8 17 8H20C20.5523 8 21 7.55228 21 7V4C21 3.44772 20.5523 3 20 3Z" stroke="black" stroke-width="2" stroke-linecap="round" stroke-linejoin="round"/>
<path d="M7 16H4C3.44772 16 3 16.4477 3 17V20C3 20.5523 3.44772 21 4 21H7C7.55228 21 8 20.5523 8 20V17C8 16.4477 7.55228 16 7 16Z" stroke="black" stroke-width="2" stroke-linecap="round" stroke-linejoin="round"/>
<path d="M21 16H18C17.4696 16 16.9609 16.2107 16.5858 16.5858C16.2107 16.9609 16 17.4696 16 18V21" stroke="black" stroke-width="2" stroke-linecap="round" stroke-linejoin="round"/>
<path d="M21 21V21.01" stroke="black" stroke-width="2" stroke-linecap="round" stroke-linejoin="round"/>
<path d="M12 7V10C12 10.5304 11.7893 11.0391 11.4142 11.4142C11.0391 11.7893 10.5304 12 10 12H7" stroke="black" stroke-width="2" stroke-linecap="round" stroke-linejoin="round"/>
<path d="M3 12H3.01" stroke="black" stroke-width="2" stroke-linecap="round" stroke-linejoin="round"/>
<path d="M12 3H12.01" stroke="black" stroke-width="2" stroke-linecap="round" stroke-linejoin="round"/>
<path d="M12 16V16.01" stroke="black" stroke-width="2" stroke-linecap="round" stroke-linejoin="round"/>
<path d="M16 12H17" stroke="black" stroke-width="2" stroke-linecap="round" stroke-linejoin="round"/>
<path d="M21 12V12.01" stroke="black" stroke-width="2" stroke-linecap="round" stroke-linejoin="round"/>
<path d="M12 21V20" stroke="black" stroke-width="2" stroke-linecap="round" stroke-linejoin="round"/>
</g>
<defs>
<clipPath id="clip0_202_147">
<rect width="24" height="24" fill="white"/>
</clipPath>
</defs>
</svg>
