<svg width="32" height="32" viewBox="0 0 32 32" fill="none" xmlns="http://www.w3.org/2000/svg">
<path d="M10.75 5.75H7C6.30964 5.75 5.75 6.30964 5.75 7V10.75C5.75 11.4404 6.30964 12 7 12H10.75C11.4404 12 12 11.4404 12 10.75V7C12 6.30964 11.4404 5.75 10.75 5.75Z" stroke="#FF2056" stroke-width="2" stroke-linecap="round" stroke-linejoin="round"/>
<path d="M27 5.75H23.25C22.5596 5.75 22 6.30964 22 7V10.75C22 11.4404 22.5596 12 23.25 12H27C27.6904 12 28.25 11.4404 28.25 10.75V7C28.25 6.30964 27.6904 5.75 27 5.75Z" stroke="#FF2056" stroke-width="2" stroke-linecap="round" stroke-linejoin="round"/>
<path d="M10.75 22H7C6.30964 22 5.75 22.5596 5.75 23.25V27C5.75 27.6904 6.30964 28.25 7 28.25H10.75C11.4404 28.25 12 27.6904 12 27V23.25C12 22.5596 11.4404 22 10.75 22Z" stroke="#FF2056" stroke-width="2" stroke-linecap="round" stroke-linejoin="round"/>
<path d="M28.25 22H24.5C23.837 22 23.2011 22.2634 22.7322 22.7322C22.2634 23.2011 22 23.837 22 24.5V28.25" stroke="#FF2056" stroke-width="2" stroke-linecap="round" stroke-linejoin="round"/>
<path d="M28.25 28.25V28.2625" stroke="#FF2056" stroke-width="2" stroke-linecap="round" stroke-linejoin="round"/>
<path d="M17 10.75V14.5C17 15.163 16.7366 15.7989 16.2678 16.2678C15.7989 16.7366 15.163 17 14.5 17H10.75" stroke="#FF2056" stroke-width="2" stroke-linecap="round" stroke-linejoin="round"/>
<path d="M5.75 17H5.7625" stroke="#FF2056" stroke-width="2" stroke-linecap="round" stroke-linejoin="round"/>
<path d="M17 5.75H17.0125" stroke="#FF2056" stroke-width="2" stroke-linecap="round" stroke-linejoin="round"/>
<path d="M17 22V22.0125" stroke="#FF2056" stroke-width="2" stroke-linecap="round" stroke-linejoin="round"/>
<path d="M22 17H23.25" stroke="#FF2056" stroke-width="2" stroke-linecap="round" stroke-linejoin="round"/>
<path d="M28.25 17V17.0125" stroke="#FF2056" stroke-width="2" stroke-linecap="round" stroke-linejoin="round"/>
<path d="M17 28.25V27" stroke="#FF2056" stroke-width="2" stroke-linecap="round" stroke-linejoin="round"/>
<path d="M8.75 3.75H5C4.30964 3.75 3.75 4.30964 3.75 5V8.75C3.75 9.44036 4.30964 10 5 10H8.75C9.44036 10 10 9.44036 10 8.75V5C10 4.30964 9.44036 3.75 8.75 3.75Z" stroke="#34FFF6" stroke-width="2" stroke-linecap="round" stroke-linejoin="round"/>
<path d="M25 3.75H21.25C20.5596 3.75 20 4.30964 20 5V8.75C20 9.44036 20.5596 10 21.25 10H25C25.6904 10 26.25 9.44036 26.25 8.75V5C26.25 4.30964 25.6904 3.75 25 3.75Z" stroke="#34FFF6" stroke-width="2" stroke-linecap="round" stroke-linejoin="round"/>
<path d="M8.75 20H5C4.30964 20 3.75 20.5596 3.75 21.25V25C3.75 25.6904 4.30964 26.25 5 26.25H8.75C9.44036 26.25 10 25.6904 10 25V21.25C10 20.5596 9.44036 20 8.75 20Z" stroke="#34FFF6" stroke-width="2" stroke-linecap="round" stroke-linejoin="round"/>
<path d="M26.25 20H22.5C21.837 20 21.2011 20.2634 20.7322 20.7322C20.2634 21.2011 20 21.837 20 22.5V26.25" stroke="#34FFF6" stroke-width="2" stroke-linecap="round" stroke-linejoin="round"/>
<path d="M26.25 26.25V26.2625" stroke="#34FFF6" stroke-width="2" stroke-linecap="round" stroke-linejoin="round"/>
<path d="M15 8.75V12.5C15 13.163 14.7366 13.7989 14.2678 14.2678C13.7989 14.7366 13.163 15 12.5 15H8.75" stroke="#34FFF6" stroke-width="2" stroke-linecap="round" stroke-linejoin="round"/>
<path d="M3.75 15H3.7625" stroke="#34FFF6" stroke-width="2" stroke-linecap="round" stroke-linejoin="round"/>
<path d="M15 3.75H15.0125" stroke="#34FFF6" stroke-width="2" stroke-linecap="round" stroke-linejoin="round"/>
<path d="M15 20V20.0125" stroke="#34FFF6" stroke-width="2" stroke-linecap="round" stroke-linejoin="round"/>
<path d="M20 15H21.25" stroke="#34FFF6" stroke-width="2" stroke-linecap="round" stroke-linejoin="round"/>
<path d="M26.25 15V15.0125" stroke="#34FFF6" stroke-width="2" stroke-linecap="round" stroke-linejoin="round"/>
<path d="M15 26.25V25" stroke="#34FFF6" stroke-width="2" stroke-linecap="round" stroke-linejoin="round"/>
<path d="M9.75 4.75H6C5.30964 4.75 4.75 5.30964 4.75 6V9.75C4.75 10.4404 5.30964 11 6 11H9.75C10.4404 11 11 10.4404 11 9.75V6C11 5.30964 10.4404 4.75 9.75 4.75Z" stroke="black" stroke-width="2" stroke-linecap="round" stroke-linejoin="round"/>
<path d="M26 4.75H22.25C21.5596 4.75 21 5.30964 21 6V9.75C21 10.4404 21.5596 11 22.25 11H26C26.6904 11 27.25 10.4404 27.25 9.75V6C27.25 5.30964 26.6904 4.75 26 4.75Z" stroke="black" stroke-width="2" stroke-linecap="round" stroke-linejoin="round"/>
<path d="M9.75 21H6C5.30964 21 4.75 21.5596 4.75 22.25V26C4.75 26.6904 5.30964 27.25 6 27.25H9.75C10.4404 27.25 11 26.6904 11 26V22.25C11 21.5596 10.4404 21 9.75 21Z" stroke="black" stroke-width="2" stroke-linecap="round" stroke-linejoin="round"/>
<path d="M27.25 21H23.5C22.837 21 22.2011 21.2634 21.7322 21.7322C21.2634 22.2011 21 22.837 21 23.5V27.25" stroke="black" stroke-width="2" stroke-linecap="round" stroke-linejoin="round"/>
<path d="M27.25 27.25V27.2625" stroke="black" stroke-width="2" stroke-linecap="round" stroke-linejoin="round"/>
<path d="M16 9.75V13.5C16 14.163 15.7366 14.7989 15.2678 15.2678C14.7989 15.7366 14.163 16 13.5 16H9.75" stroke="black" stroke-width="2" stroke-linecap="round" stroke-linejoin="round"/>
<path d="M4.75 16H4.7625" stroke="black" stroke-width="2" stroke-linecap="round" stroke-linejoin="round"/>
<path d="M16 4.75H16.0125" stroke="black" stroke-width="2" stroke-linecap="round" stroke-linejoin="round"/>
<path d="M16 21V21.0125" stroke="black" stroke-width="2" stroke-linecap="round" stroke-linejoin="round"/>
<path d="M21 16H22.25" stroke="black" stroke-width="2" stroke-linecap="round" stroke-linejoin="round"/>
<path d="M27.25 16V16.0125" stroke="black" stroke-width="2" stroke-linecap="round" stroke-linejoin="round"/>
<path d="M16 27.25V26" stroke="black" stroke-width="2" stroke-linecap="round" stroke-linejoin="round"/>
</svg>
